<svg width="20" height="20" viewBox="0 0 20 20" fill="none" xmlns="http://www.w3.org/2000/svg">
<path d="M3.77033 5.20833C3.77033 5.04257 3.83617 4.8836 3.95338 4.76639C4.07059 4.64918 4.22957 4.58333 4.39533 4.58333H15.6087C15.7744 4.58333 15.9334 4.64918 16.0506 4.76639C16.1678 4.8836 16.2337 5.04257 16.2337 5.20833V8.125C16.2337 8.29076 16.1678 8.44973 16.0506 8.56694C15.9334 8.68415 15.7744 8.75 15.6087 8.75H4.39533C4.22957 8.75 4.07059 8.68415 3.95338 8.56694C3.83617 8.44973 3.77033 8.29076 3.77033 8.125V5.20833ZM5.02033 5.83333V7.5H14.9837V5.83333H5.02033ZM11.8587 9.9825C11.6929 9.9825 11.5339 10.0483 11.4167 10.1656C11.2995 10.2828 11.2337 10.4417 11.2337 10.6075V14.3575C11.2337 14.7025 11.5128 14.9825 11.8587 14.9825H15.6087C15.7744 14.9825 15.9334 14.9167 16.0506 14.7994C16.1678 14.6822 16.2337 14.5233 16.2337 14.3575V10.6075C16.2337 10.4417 16.1678 10.2828 16.0506 10.1656C15.9334 10.0483 15.7744 9.9825 15.6087 9.9825H11.8587ZM12.4837 13.7325V11.2325H14.9837V13.7325H12.4837ZM3.77033 11.0417C3.77033 10.8759 3.83617 10.7169 3.95338 10.5997C4.07059 10.4825 4.22957 10.4167 4.39533 10.4167H9.37533C9.54109 10.4167 9.70006 10.4825 9.81727 10.5997C9.93448 10.7169 10.0003 10.8759 10.0003 11.0417C10.0003 11.2074 9.93448 11.3664 9.81727 11.4836C9.70006 11.6008 9.54109 11.6667 9.37533 11.6667H4.39533C4.22957 11.6667 4.07059 11.6008 3.95338 11.4836C3.83617 11.3664 3.77033 11.2074 3.77033 11.0417ZM4.39533 13.3333C4.22957 13.3333 4.07059 13.3992 3.95338 13.5164C3.83617 13.6336 3.77033 13.7926 3.77033 13.9583C3.77033 14.1241 3.83617 14.2831 3.95338 14.4003C4.07059 14.5175 4.22957 14.5833 4.39533 14.5833H9.37533C9.54109 14.5833 9.70006 14.5175 9.81727 14.4003C9.93448 14.2831 10.0003 14.1241 10.0003 13.9583C10.0003 13.7926 9.93448 13.6336 9.81727 13.5164C9.70006 13.3992 9.54109 13.3333 9.37533 13.3333H4.39533ZM1.66699 4.79167C1.66699 4.18388 1.90844 3.60098 2.33821 3.17121C2.76798 2.74144 3.35087 2.5 3.95866 2.5H16.042C16.6498 2.5 17.2327 2.74144 17.6624 3.17121C18.0922 3.60098 18.3337 4.18388 18.3337 4.79167V15.2083C18.3337 15.8161 18.0922 16.399 17.6624 16.8288C17.2327 17.2586 16.6498 17.5 16.042 17.5H3.95866C3.35087 17.5 2.76798 17.2586 2.33821 16.8288C1.90844 16.399 1.66699 15.8161 1.66699 15.2083V4.79167ZM3.95866 3.75C3.38366 3.75 2.91699 4.21667 2.91699 4.79167V15.2083C2.91699 15.7833 3.38366 16.25 3.95866 16.25H16.042C16.617 16.25 17.0837 15.7833 17.0837 15.2083V4.79167C17.0837 4.21667 16.617 3.75 16.042 3.75H3.95866Z" fill="#3C0061"/>
</svg>
