<svg width="16" height="16" viewBox="0 0 16 16" fill="none" xmlns="http://www.w3.org/2000/svg">
<g clip-path="url(#clip0_14028_16461)">
<mask id="mask0_14028_16461" style="mask-type:luminance" maskUnits="userSpaceOnUse" x="0" y="0" width="16" height="16">
<path d="M7.99968 14.6693C8.87532 14.6704 9.74254 14.4984 10.5515 14.1633C11.3605 13.8282 12.0953 13.3366 12.7137 12.7166C13.3336 12.0982 13.8253 11.3634 14.1604 10.5544C14.4955 9.74547 14.6674 8.87825 14.6663 8.00261C14.6674 7.12697 14.4955 6.25975 14.1604 5.45077C13.8253 4.64179 13.3336 3.907 12.7137 3.28861C12.0953 2.66866 11.3605 2.17702 10.5515 1.84191C9.74254 1.50681 8.87532 1.33486 7.99968 1.33594C7.12404 1.33486 6.25682 1.50681 5.44784 1.84191C4.63886 2.17702 3.90407 2.66866 3.28568 3.28861C2.66573 3.907 2.17409 4.64179 1.83898 5.45077C1.50388 6.25975 1.33193 7.12697 1.33301 8.00261C1.33193 8.87825 1.50388 9.74547 1.83898 10.5544C2.17409 11.3634 2.66573 12.0982 3.28568 12.7166C3.90407 13.3366 4.63886 13.8282 5.44784 14.1633C6.25682 14.4984 7.12404 14.6704 7.99968 14.6693Z" fill="white" stroke="white" stroke-width="1.33333" stroke-linejoin="round"/>
<path d="M5.33301 8L7.33301 10L11.333 6" stroke="black" stroke-width="1.33333" stroke-linecap="round" stroke-linejoin="round"/>
</mask>
<g mask="url(#mask0_14028_16461)">
<path d="M0 0H16V16H0V0Z" fill="#C6BEE3"/>
</g>
</g>
<defs>
<clipPath id="clip0_14028_16461">
<rect width="16" height="16" fill="white"/>
</clipPath>
</defs>
</svg>
