<svg width="26" height="26" viewBox="0 0 26 26" fill="none" xmlns="http://www.w3.org/2000/svg">
<path d="M16.4085 18.3203C16.1998 18.3203 15.9983 18.3969 15.8424 18.5356C15.6864 18.6743 15.5868 18.8654 15.5624 19.0726L15.5564 19.1723V20.8764C15.5567 21.0936 15.6398 21.3025 15.7889 21.4604C15.938 21.6183 16.1417 21.7133 16.3585 21.726C16.5753 21.7388 16.7888 21.6682 16.9553 21.5288C17.1219 21.3895 17.2289 21.1917 17.2545 20.9761L17.2605 20.8764V19.1723C17.2605 18.9463 17.1707 18.7296 17.011 18.5698C16.8512 18.41 16.6344 18.3203 16.4085 18.3203ZM9.38504 11.3999C9.23832 11.2532 9.04311 11.1651 8.83604 11.1521C8.62897 11.1391 8.42427 11.202 8.26033 11.3292L8.18024 11.3999L6.37305 13.208C5.50813 14.0738 5.01626 15.2437 5.00258 16.4675C4.98891 17.6913 5.45452 18.8718 6.29988 19.7568C7.14524 20.6418 8.30326 21.1609 9.52638 21.2033C10.7495 21.2457 11.9407 20.8078 12.8452 19.9835L13.0003 19.8352L14.8075 18.028C14.9619 17.875 15.052 17.6688 15.0594 17.4516C15.0668 17.2343 14.9908 17.0225 14.8471 16.8594C14.7034 16.6963 14.5028 16.5943 14.2863 16.5742C14.0699 16.5542 13.854 16.6177 13.6828 16.7516L13.6027 16.8224L11.7955 18.6304C11.247 19.1791 10.5062 19.4925 9.73048 19.504C8.95471 19.5155 8.20501 19.2242 7.6405 18.692C7.07599 18.1598 6.74113 17.4285 6.707 16.6534C6.67287 15.8783 6.94216 15.1204 7.4577 14.5406L7.57784 14.4128L9.38504 12.6056C9.46426 12.5264 9.5271 12.4325 9.56998 12.329C9.61286 12.2256 9.63493 12.1147 9.63493 12.0028C9.63493 11.8908 9.61286 11.7799 9.56998 11.6765C9.5271 11.573 9.46426 11.4791 9.38504 11.3999ZM18.9646 16.6162C18.7474 16.6164 18.5386 16.6996 18.3806 16.8486C18.2227 16.9977 18.1277 17.2015 18.115 17.4183C18.1022 17.6351 18.1728 17.8486 18.3122 18.0151C18.4516 18.1816 18.6493 18.2886 18.8649 18.3143L18.9646 18.3203H19.8167C20.0338 18.32 20.2427 18.2369 20.4006 18.0878C20.5585 17.9387 20.6536 17.7349 20.6663 17.5181C20.679 17.3014 20.6085 17.0879 20.4691 16.9213C20.3297 16.7548 20.132 16.6478 19.9163 16.6221L19.8167 16.6162H18.9646ZM15.4107 10.7975C15.264 10.6508 15.0688 10.5627 14.8617 10.5497C14.6547 10.5367 14.45 10.5996 14.286 10.7268L14.2051 10.7975L10.5907 14.4128C10.4379 14.5661 10.3491 14.7719 10.3425 14.9882C10.3359 15.2046 10.4119 15.4154 10.5551 15.5778C10.6983 15.7401 10.8979 15.8419 11.1134 15.8624C11.3289 15.883 11.5441 15.8207 11.7154 15.6883L11.7955 15.6176L15.4107 12.0032C15.4899 11.924 15.5528 11.8301 15.5957 11.7266C15.6385 11.6232 15.6606 11.5123 15.6606 11.4004C15.6606 11.2884 15.6385 11.1775 15.5957 11.0741C15.5528 10.9706 15.4899 10.8767 15.4107 10.7975ZM19.6284 6.5799C18.7756 5.7272 17.627 5.23604 16.4214 5.20858C15.2158 5.18113 14.046 5.61949 13.1553 6.43249L13.0003 6.58075L11.1931 8.38709C11.0386 8.54007 10.9485 8.74629 10.9411 8.96354C10.9338 9.18079 11.0097 9.39265 11.1534 9.55574C11.2971 9.71884 11.4978 9.82083 11.7142 9.84086C11.9307 9.86088 12.1466 9.79742 12.3178 9.66346L12.3979 9.59274L14.2051 7.78555C14.7536 7.23681 15.4943 6.92343 16.2701 6.91193C17.0458 6.90043 17.7955 7.19172 18.36 7.72396C18.9246 8.2562 19.2594 8.98749 19.2935 9.76259C19.3277 10.5377 19.0584 11.2956 18.5428 11.8754L18.4227 12.0032L16.6155 13.8095C16.4611 13.9625 16.3709 14.1687 16.3636 14.386C16.3562 14.6032 16.4321 14.8151 16.5759 14.9782C16.7196 15.1413 16.9202 15.2433 17.1366 15.2633C17.3531 15.2833 17.569 15.2199 17.7402 15.0859L17.8203 15.0152L19.6275 13.208C20.5063 12.3291 21 11.1372 21 9.89436C21 8.65153 20.5063 7.45959 19.6275 6.58075L19.6284 6.5799ZM6.18389 8.09569C5.95792 8.09569 5.74119 8.18546 5.5814 8.34525C5.42161 8.50504 5.33185 8.72176 5.33185 8.94774C5.33185 9.17372 5.42161 9.39044 5.5814 9.55023C5.74119 9.71002 5.95792 9.79979 6.18389 9.79979H7.03594C7.26192 9.79979 7.47864 9.71002 7.63843 9.55023C7.79822 9.39044 7.88799 9.17372 7.88799 8.94774C7.88799 8.72176 7.79822 8.50504 7.63843 8.34525C7.47864 8.18546 7.26192 8.09569 7.03594 8.09569H6.18389ZM9.59208 4.6875C9.38339 4.68753 9.18196 4.76415 9.02601 4.90283C8.87005 5.0415 8.77042 5.2326 8.746 5.43986L8.74004 5.53955V7.24364C8.74028 7.46081 8.82343 7.66969 8.97252 7.82761C9.1216 7.98552 9.32535 8.08055 9.54215 8.09328C9.75895 8.10601 9.97242 8.03547 10.139 7.89609C10.3055 7.7567 10.4125 7.55898 10.4382 7.34333L10.4441 7.24364V5.53955C10.4441 5.31357 10.3544 5.09685 10.1946 4.93706C10.0348 4.77727 9.81806 4.6875 9.59208 4.6875Z" fill="#C80000"/>
</svg>
