<svg width="20" height="21" viewBox="0 0 20 21" fill="none" xmlns="http://www.w3.org/2000/svg">
<path d="M5.55577 14.9436C4.32614 14.9436 3.27814 14.5101 2.41177 13.6431C1.5454 12.7762 1.11192 11.7282 1.11133 10.4991C1.11074 9.27009 1.54422 8.22209 2.41177 7.35513C3.27933 6.48817 4.32733 6.05469 5.55577 6.05469H8.22244C8.47429 6.05469 8.68555 6.14002 8.85622 6.31069C9.02688 6.48135 9.11192 6.69232 9.11133 6.94358C9.11073 7.19484 9.0254 7.40609 8.85533 7.57735C8.68525 7.74861 8.47429 7.83365 8.22244 7.83246H5.55577C4.81503 7.83246 4.1854 8.09172 3.66688 8.61024C3.14837 9.12876 2.88911 9.75839 2.88911 10.4991C2.88911 11.2399 3.14837 11.8695 3.66688 12.388C4.1854 12.9065 4.81503 13.1658 5.55577 13.1658H8.22244C8.47429 13.1658 8.68555 13.2511 8.85622 13.4218C9.02688 13.5925 9.11192 13.8034 9.11133 14.0547C9.11073 14.3059 9.0254 14.5172 8.85533 14.6885C8.68525 14.8597 8.47429 14.9448 8.22244 14.9436H5.55577ZM7.33355 11.388C7.0817 11.388 6.87073 11.3027 6.70066 11.132C6.53059 10.9614 6.44525 10.7504 6.44466 10.4991C6.44407 10.2479 6.5294 10.0369 6.70066 9.86624C6.87192 9.69558 7.08288 9.61024 7.33355 9.61024H12.6669C12.9187 9.61024 13.13 9.69558 13.3007 9.86624C13.4713 10.0369 13.5564 10.2479 13.5558 10.4991C13.5552 10.7504 13.4698 10.9616 13.2998 11.1329C13.1297 11.3042 12.9187 11.3892 12.6669 11.388H7.33355ZM11.778 14.9436C11.5261 14.9436 11.3152 14.8582 11.1451 14.6876C10.975 14.5169 10.8897 14.3059 10.8891 14.0547C10.8885 13.8034 10.9738 13.5925 11.1451 13.4218C11.3164 13.2511 11.5273 13.1658 11.778 13.1658H14.4447C15.1854 13.1658 15.815 12.9065 16.3335 12.388C16.8521 11.8695 17.1113 11.2399 17.1113 10.4991C17.1113 9.75839 16.8521 9.12876 16.3335 8.61024C15.815 8.09172 15.1854 7.83246 14.4447 7.83246H11.778C11.5261 7.83246 11.3152 7.74713 11.1451 7.57646C10.975 7.4058 10.8897 7.19484 10.8891 6.94358C10.8885 6.69232 10.9738 6.48135 11.1451 6.31069C11.3164 6.14002 11.5273 6.05469 11.778 6.05469H14.4447C15.6743 6.05469 16.7226 6.48817 17.5895 7.35513C18.4565 8.22209 18.8897 9.27009 18.8891 10.4991C18.8885 11.7282 18.455 12.7765 17.5887 13.644C16.7223 14.5116 15.6743 14.9448 14.4447 14.9436H11.778Z" fill="#444444"/>
</svg>
