<svg width="26" height="26" viewBox="0 0 26 26" fill="none" xmlns="http://www.w3.org/2000/svg">
<path fill-rule="evenodd" clip-rule="evenodd" d="M22.7895 5.93533C23.0779 6.22383 23.2399 6.61508 23.2399 7.02302C23.2399 7.43097 23.0779 7.82221 22.7895 8.11071L11.2582 19.642C11.1058 19.7944 10.9249 19.9153 10.7258 19.9978C10.5267 20.0803 10.3132 20.1228 10.0977 20.1228C9.88217 20.1228 9.66874 20.0803 9.46962 19.9978C9.2705 19.9153 9.08957 19.7944 8.93719 19.642L3.20796 13.9138C3.06102 13.7719 2.94381 13.6021 2.86318 13.4144C2.78255 13.2267 2.74011 13.0248 2.73834 12.8206C2.73656 12.6163 2.77549 12.4137 2.85285 12.2246C2.9302 12.0356 3.04444 11.8638 3.18889 11.7193C3.33334 11.5749 3.50511 11.4607 3.69418 11.3833C3.88325 11.3059 4.08584 11.267 4.29011 11.2688C4.49439 11.2706 4.69626 11.313 4.88396 11.3936C5.07166 11.4743 5.24142 11.5915 5.38334 11.7384L10.0972 16.4523L20.6131 5.93533C20.756 5.79236 20.9256 5.67895 21.1123 5.60158C21.299 5.5242 21.4992 5.48438 21.7013 5.48438C21.9034 5.48438 22.1035 5.5242 22.2903 5.60158C22.477 5.67895 22.6466 5.79236 22.7895 5.93533Z" fill="#218710"/>
</svg>
